<svg width="48" height="48" viewBox="0 0 48 48" fill="none" xmlns="http://www.w3.org/2000/svg">
<rect width="48" height="48" rx="5" fill="#0750B0"/>
<path d="M37.4 24.12C37.5333 24.12 37.6 24.2667 37.6 24.56C37.6 24.8533 37.5867 25.1467 37.56 25.44C37.1333 30.5067 35.8667 34.2133 33.76 36.56C33.0667 37.3333 31.9333 37.7467 30.36 37.8C28.44 37.1067 27.48 35.4133 27.48 32.72C27.48 32.24 27.5333 31.64 27.64 30.92C27.7467 30.1733 28.64 25 30.32 15.4C27.9733 20.1467 26.4667 25.9333 25.8 32.76C25.72 33.56 25.6533 34.16 25.6 34.56C25.4933 35.4133 25.1333 35.84 24.52 35.84C23.6933 35.84 22.8133 35.2133 21.88 33.96C21.56 33.5333 21.4 33 21.4 32.36C21.4 31.72 21.4133 31.0133 21.44 30.24C21.4933 29.4667 21.5733 28.6133 21.68 27.68C21.7867 26.7467 21.8667 26 21.92 25.44C21.9733 24.88 22.0933 24.0267 22.28 22.88C22.4933 21.7333 22.6267 21 22.68 20.68C22.7333 20.3333 22.88 19.48 23.12 18.12C23.3867 16.76 23.5333 16 23.56 15.84C23.16 16.24 22.8 16.84 22.48 17.64C22.1867 18.44 21.9467 19.0933 21.76 19.6C21.5733 20.08 21.3867 20.6667 21.2 21.36C21.0133 22.0533 20.8533 22.6533 20.72 23.16C20.5867 23.6667 20.4267 24.28 20.24 25C20.08 25.72 19.96 26.2667 19.88 26.64C19.6933 27.3333 19.3867 28.6267 18.96 30.52C18.5333 32.4133 18.2533 33.6133 18.12 34.12C18.0133 34.6 17.92 35 17.84 35.32C17.7867 35.6133 17.7333 35.8267 17.68 35.96C17.6533 36.0667 17.5867 36.2267 17.48 36.44C17.2667 36.8133 16.92 37 16.44 37C15.9867 37 15.5867 36.84 15.24 36.52C14.92 36.1733 14.7067 35.88 14.6 35.64C14.4933 35.3733 14.3467 35.0133 14.16 34.56C14 34.08 13.92 33.7067 13.92 33.44C13.92 33.1733 14 32.7067 14.16 32.04C14.32 31.3733 14.5067 30.5467 14.72 29.56C14.96 28.5733 15.1067 27.9467 15.16 27.68C15.24 27.3867 15.3733 26.7867 15.56 25.88C15.7733 24.9733 15.92 24.3333 16 23.96C16.08 23.5867 16.2 23 16.36 22.2C16.52 21.3733 16.64 20.7333 16.72 20.28C16.8 19.8 16.9067 19.2 17.04 18.48C17.1733 17.7333 17.28 17.08 17.36 16.52C17.6267 14.76 17.7867 13.5333 17.84 12.84V12.56C17.84 12.08 17.7333 11.84 17.52 11.84C17.3067 11.84 16.96 12.2133 16.48 12.96C16 13.7067 15.6667 14.28 15.48 14.68C15.2933 15.08 15.16 15.6267 15.08 16.32C14.7067 20.0267 13.7467 23.04 12.2 25.36C12.0133 25.6267 11.72 25.76 11.32 25.76C10.92 25.76 10.4933 25.5467 10.04 25.12C9.61333 24.6933 9.4 24.2533 9.4 23.8C9.4 21.08 10.32 17.9333 12.16 14.36C12.88 13 13.4667 10.9867 13.92 8.32C14.64 9.38666 15.08 10.0933 15.24 10.44C15.4267 10.7867 15.6267 10.96 15.84 10.96C15.9467 10.96 16.1867 10.8 16.56 10.48C16.9333 10.16 17.48 10 18.2 10C18.9467 10 19.5467 10.1867 20 10.56C20.4533 10.9333 20.7333 11.36 20.84 11.84C20.9733 12.32 21.0667 13.04 21.12 14C21.28 13.8667 21.56 13.6133 21.96 13.24C22.8133 12.4933 23.56 12.12 24.2 12.12C24.8667 12.12 25.4533 12.48 25.96 13.2C26.4933 13.8933 26.7333 14.6133 26.68 15.36C27 14.9867 27.5867 14.0667 28.44 12.6C29.0533 11.64 29.8667 11.16 30.88 11.16C32.56 11.16 33.4 11.92 33.4 13.44C33.4 14.1333 33.08 16.0533 32.44 19.2C31.8 22.3467 31.3333 24.9467 31.04 27C30.7467 29.0267 30.6 30.9467 30.6 32.76V33.52C31.48 32.7733 32.3333 31.84 33.16 30.72C34.0133 29.5733 34.64 28.6667 35.04 28C35.44 27.3067 36.0667 26.2 36.92 24.68C37.16 24.3067 37.32 24.12 37.4 24.12Z" fill="white"/>
</svg>
